<?xml version="1.0" ?><!DOCTYPE svg  PUBLIC '-//W3C//DTD SVG 1.1//EN'  'http://www.w3.org/Graphics/SVG/1.1/DTD/svg11.dtd'><svg enable-background="new 0 0 500 500" height="500px" id="Layer_1" version="1.1" viewBox="0 0 500 500" width="500px" xml:space="preserve" xmlns="http://www.w3.org/2000/svg" xmlns:xlink="http://www.w3.org/1999/xlink"><path clip-rule="evenodd" d="M359.026,140.975V86.463c0-20.079-16.263-36.343-36.342-36.343  H177.317c-20.079,0-36.342,16.264-36.342,36.343v54.512H68.29c-20.077,0-36.34,16.264-36.34,36.342v236.222  c0,20.079,16.264,36.341,36.34,36.341h363.421c20.078,0,36.34-16.262,36.34-36.341V177.317c0-20.078-16.262-36.342-36.34-36.342  H359.026z M206.392,95.549h87.215c11.085,0,19.991,8.906,19.991,19.989v25.438H186.401v-25.438  C186.401,104.455,195.306,95.549,206.392,95.549z M140.975,204.574v181.711c0,9.986-8.177,18.168-18.172,18.168  c-9.993,0-18.17-8.182-18.17-18.168V204.574c0-9.992,8.177-18.172,18.17-18.172C132.798,186.402,140.975,194.583,140.975,204.574z   M395.366,204.574v181.711c0,9.986-8.182,18.168-18.168,18.168c-9.992,0-18.172-8.182-18.172-18.168V204.574  c0-9.992,8.18-18.172,18.172-18.172C387.185,186.402,395.366,194.583,395.366,204.574z" fill="#202020" stroke="#202020" fill-rule="evenodd"/></svg>