<?xml version="1.0" encoding="UTF-8" standalone="no"?>
<svg
   xmlns:dc="http://purl.org/dc/elements/1.1/"
   xmlns:cc="http://creativecommons.org/ns#"
   xmlns:rdf="http://www.w3.org/1999/02/22-rdf-syntax-ns#"
   xmlns:svg="http://www.w3.org/2000/svg"
   xmlns="http://www.w3.org/2000/svg"
   xmlns:sodipodi="http://sodipodi.sourceforge.net/DTD/sodipodi-0.dtd"
   xmlns:inkscape="http://www.inkscape.org/namespaces/inkscape"
   height="48"
   width="48"
   id="svg2"
   version="1.1"
   inkscape:version="0.91 r13725"
   sodipodi:docname="github.svg">
  <metadata
     id="metadata10">
    <rdf:RDF>
      <cc:Work
         rdf:about="">
        <dc:format>image/svg+xml</dc:format>
        <dc:type
           rdf:resource="http://purl.org/dc/dcmitype/StillImage" />
        <dc:title></dc:title>
      </cc:Work>
    </rdf:RDF>
  </metadata>
  <defs
     id="defs8" />
  <sodipodi:namedview
     pagecolor="#ffffff"
     bordercolor="#666666"
     borderopacity="1"
     objecttolerance="10"
     gridtolerance="10"
     guidetolerance="10"
     inkscape:pageopacity="0"
     inkscape:pageshadow="2"
     inkscape:window-width="1920"
     inkscape:window-height="1018"
     id="namedview6"
     showgrid="false"
     inkscape:zoom="14.75"
     inkscape:cx="39.660565"
     inkscape:cy="22.862656"
     inkscape:window-x="1912"
     inkscape:window-y="-8"
     inkscape:window-maximized="1"
     inkscape:current-layer="svg2" />
  <path
     d="m 24,0.50000025 c -13.253906,0 -24,10.78821775 -24,24.09407675 0,10.647042 6.876,19.676438 16.413562,22.861703 1.199719,0.220612 1.637719,-0.523528 1.637719,-1.158821 0,-0.573552 -0.02198,-2.473501 -0.0337,-4.485263 C 11.34375,43.267552 9.9330938,38.970524 9.9330938,38.970524 8.8403437,36.188176 7.2685313,35.447001 7.2685313,35.447001 5.0873906,33.952885 7.434,33.982297 7.434,33.982297 c 2.4096563,0.167624 3.678281,2.48235 3.678281,2.48235 2.141625,3.682346 5.619141,2.617641 6.984375,1.999996 0.218157,-1.552939 0.83925,-2.617643 1.523438,-3.217642 C 14.292469,34.638202 8.688,32.570535 8.688,23.338173 c 0,-2.632371 0.9360469,-4.779379 2.46825,-6.466153 -0.244641,-0.611764 -1.070812,-3.063242 0.237281,-6.379377 0,0 2.012719,-0.6470573 6.600563,2.470584 1.913062,-0.536752 3.965343,-0.801458 6.005859,-0.810304 2.039063,0.0088 4.09275,0.276469 6.008813,0.813222 4.579125,-3.1205593 6.59475,-2.470585 6.59475,-2.470585 1.3125,3.319101 0.486328,5.767613 0.240234,6.37646 1.538063,1.686774 2.466797,3.833828 2.466797,6.466153 0,9.255891 -5.613281,11.294099 -10.959938,11.891181 0.864282,0.747057 1.628907,2.211761 1.628907,4.458816 0,3.220606 -0.03225,5.817638 -0.03225,6.611754 0,0.641175 0.4365,1.39115 1.652343,1.155856 C 41.129906,44.264633 48,35.235236 48,24.594077 48,11.288218 37.253906,0.50000025 24,0.50000025 Z"
	 fill="#FFF"
     id="path4"
     inkscape:connector-curvature="0" />
</svg>
