<?xml version="1.0" encoding="UTF-8" standalone="no"?>
<svg
   xmlns:dc="http://purl.org/dc/elements/1.1/"
   xmlns:cc="http://creativecommons.org/ns#"
   xmlns:rdf="http://www.w3.org/1999/02/22-rdf-syntax-ns#"
   xmlns:svg="http://www.w3.org/2000/svg"
   xmlns="http://www.w3.org/2000/svg"
   xmlns:sodipodi="http://sodipodi.sourceforge.net/DTD/sodipodi-0.dtd"
   xmlns:inkscape="http://www.inkscape.org/namespaces/inkscape"
   height="48"
   viewBox="0 0 48 48"
   width="48"
   id="svg2"
   version="1.1"
   inkscape:version="0.91 r13725"
   sodipodi:docname="print.svg">
  <metadata
     id="metadata12">
    <rdf:RDF>
      <cc:Work
         rdf:about="">
        <dc:format>image/svg+xml</dc:format>
        <dc:type
           rdf:resource="http://purl.org/dc/dcmitype/StillImage" />
        <dc:title></dc:title>
      </cc:Work>
    </rdf:RDF>
  </metadata>
  <defs
     id="defs10" />
  <sodipodi:namedview
     pagecolor="#ffffff"
     bordercolor="#666666"
     borderopacity="1"
     objecttolerance="10"
     gridtolerance="10"
     guidetolerance="10"
     inkscape:pageopacity="0"
     inkscape:pageshadow="2"
     inkscape:window-width="1920"
     inkscape:window-height="1018"
     id="namedview8"
     showgrid="false"
     inkscape:zoom="13.906433"
     inkscape:cx="5.9734448"
     inkscape:cy="20.072133"
     inkscape:window-x="1912"
     inkscape:window-y="-8"
     inkscape:window-maximized="1"
     inkscape:current-layer="svg2" />
  <path
     d="m 40.800001,14.444444 -33.6000007,0 C 3.228,14.444444 0,17.657501 0,21.611112 l 0,14.333333 9.6000003,0 0,9.555555 28.8000007,0 0,-9.555555 9.599999,0 0,-14.333333 c 0,-3.953611 -3.227999,-7.166668 -7.199999,-7.166668 z m -7.2,26.277778 -19.200001,0 0,-11.944444 19.200001,0 0,11.944444 z M 40.800001,24 c -1.332001,0 -2.4,-1.063055 -2.4,-2.388888 0,-1.325834 1.067999,-2.388889 2.4,-2.388889 C 42.132,19.222223 43.2,20.285278 43.2,21.611112 43.2,22.936945 42.132,24 40.800001,24 Z m -2.4,-21.5 -28.8000007,0 0,9.555555 28.8000007,0 0,-9.555555 z"
     id="path4" fill="#FFF"
     inkscape:connector-curvature="0" />
  <path
     d="M0 0h48v48h-48z"
     fill="none"
     id="path6" />
</svg>
